<?xml version="1.0" encoding="iso-8859-1"?>
<!-- Generator: Adobe Illustrator 19.0.0, SVG Export Plug-In . SVG Version: 6.00 Build 0)  -->
<svg version="1.1" id="Layer_1" xmlns="http://www.w3.org/2000/svg" xmlns:xlink="http://www.w3.org/1999/xlink" x="0px" y="0px"
	 viewBox="0 0 512.001 512.001" style="enable-background:new 0 0 512.001 512.001;" xml:space="preserve">
<g>
	<path style="fill:#39B54A;" d="M271.744,328.167c0-32.237-27.207-58.37-60.769-58.37c-6.601,0-12.955,1.015-18.906,2.884
		c24.305,7.636,41.864,29.589,41.864,55.485h37.811V328.167z"/>
	<path style="fill:#39B54A;" d="M240.258,328.167c0-39.561,33.388-71.63,74.575-71.63c8.101,0,15.899,1.245,23.201,3.54
		c-29.826,9.37-51.373,36.311-51.373,68.091h-46.402V328.167z"/>
</g>
<g>
	<polygon style="fill:#8C6239;" points="328.711,364.423 183.291,364.423 196.694,501.801 315.308,501.801 	"/>
	<rect x="166.87" y="328.231" style="fill:#8C6239;" width="178.251" height="36.188"/>
</g>
<path style="fill:#FF0000;" d="M237.237,40.295c1.886-10.827,18.764-30.096,18.764-30.096s16.879,19.268,18.764,30.096
	c2.268-1.676,4.509-3.264,6.687-4.75c13.577-9.271,24.669-14.732,24.669-14.732s-7.42,30.999-7.42,80.632
	c0,18.305-14.839,33.143-33.143,33.143c-3.323,0-6.53-0.495-9.556-1.404c-3.026,0.91-6.233,1.404-9.556,1.404
	c-18.305,0-33.143-14.839-33.143-33.143c0-49.632-7.42-80.632-7.42-80.632s11.092,5.461,24.669,14.732
	C232.726,37.032,234.968,38.619,237.237,40.295z"/>
<path d="M217.555,421.264c-5.606,0.547-9.708,5.535-9.16,11.142l4.292,43.991c0.514,5.27,4.952,9.209,10.139,9.209
	c0.33,0,0.666-0.016,1.003-0.049c5.606-0.547,9.708-5.535,9.16-11.142l-4.292-43.991
	C228.15,424.818,223.173,420.722,217.555,421.264z"/>
<path d="M204.181,389.214l1.404,14.398c0.514,5.27,4.952,9.209,10.139,9.209c0.33,0,0.666-0.016,1.003-0.049
	c5.607-0.547,9.708-5.535,9.16-11.142l-1.404-14.398c-0.547-5.605-5.523-9.707-11.142-9.16
	C207.735,378.619,203.633,383.607,204.181,389.214z"/>
<path d="M345.129,318.037h-47.393c3.87-22.275,20.318-40.994,43.354-48.231c4.25-1.335,7.142-5.275,7.142-9.73
	c0-4.455-2.891-8.395-7.142-9.73c-8.466-2.66-17.301-4.009-26.258-4.009c-18.085,0-34.857,5.506-48.632,14.858V144.773
	c23.603-0.347,42.699-19.643,42.699-43.326c0-47.643,7.071-77.966,7.139-78.257c0.92-3.845-0.464-7.875-3.552-10.343
	c-3.088-2.467-7.324-2.928-10.871-1.182c-0.439,0.216-10.048,4.972-22.417,13.114c-5.58-9.708-13.414-18.89-15.525-21.299
	C261.736,1.268,258.94,0,256.001,0c-2.939,0-5.735,1.268-7.672,3.479c-2.111,2.409-9.945,11.592-15.525,21.299
	c-12.371-8.142-21.978-12.898-22.417-13.114c-3.544-1.744-7.775-1.282-10.863,1.181c-3.088,2.463-4.475,6.492-3.563,10.335
	c0.071,0.301,7.141,30.623,7.141,78.267c0,23.684,19.096,42.979,42.699,43.326v123.681c-10.294-5.632-22.175-8.857-34.826-8.857
	c-7.491,0-14.882,1.128-21.964,3.355c-4.25,1.336-7.141,5.275-7.141,9.731c0,4.456,2.891,8.394,7.143,9.73
	c17.32,5.441,29.893,19.138,33.592,35.626h-55.733c-5.633,0-10.199,4.566-10.199,10.199v36.187c0,5.633,4.566,10.199,10.199,10.199
	h7.166l12.504,128.169c0.51,5.224,4.902,9.209,10.151,9.209h118.614c5.25,0,9.641-3.985,10.151-9.209l12.504-128.169h7.166
	c5.633,0,10.199-4.566,10.199-10.199v-36.187C355.328,322.603,350.762,318.037,345.129,318.037z M304.171,267.577
	c-12.352,10.826-21.18,25.037-25.225,40.895c-0.793,3.108-1.421,6.274-1.835,9.495h-16.706h-9.061
	c0.797-4.528,2.123-8.886,3.9-13.022c2.913-6.782,7.057-12.963,12.173-18.281C276.911,276.794,289.733,269.883,304.171,267.577z
	 M262.573,36.803c-0.251,0.2-0.511,0.398-0.759,0.598c-2.009,1.617-3.94,3.25-5.814,4.889c-1.874-1.639-3.804-3.272-5.814-4.889
	c-0.248-0.2-0.509-0.398-0.759-0.598c1.606-2.989,3.948-6.592,6.572-10.215C258.626,30.212,260.967,33.813,262.573,36.803z
	 M223.501,101.446c0-25.748-1.939-46.555-3.872-60.903c0.064,0.042,0.13,0.083,0.194,0.124c0.723,0.466,1.457,0.945,2.203,1.439
	c0.075,0.05,0.15,0.098,0.225,0.148c0.837,0.555,1.687,1.126,2.548,1.713c0.147,0.101,0.353,0.247,0.61,0.433
	c3.293,2.389,14.878,11.27,16.122,12.339c-0.925,1.076-1.827,2.151-2.682,3.222c-1.56,1.955-3.036,3.946-4.385,5.917
	c-3.182,4.648-1.994,10.996,2.655,14.177c1.761,1.207,3.767,1.785,5.752,1.785c3.252,0,6.449-1.552,8.425-4.439
	c1.069-1.561,2.246-3.147,3.496-4.716c2.436-3.052,5.255-6.164,8.379-9.252c3.409-3.369,7.256-6.781,11.432-10.144
	c2.15-1.73,14.319-10.487,15.161-11.046c0.057-0.038,0.112-0.074,0.169-0.112c0.791-0.523,1.571-1.032,2.337-1.526
	c0.034-0.022,0.068-0.044,0.102-0.065c-1.933,14.347-3.872,35.155-3.872,60.903c0,12.651-10.293,22.944-22.944,22.944
	c-2.245,0-4.471-0.327-6.619-0.973c-0.958-0.288-1.947-0.431-2.936-0.431s-1.979,0.144-2.936,0.431
	c-2.148,0.646-4.375,0.973-6.619,0.973C233.794,124.391,223.501,114.097,223.501,101.446z M240.404,289.026
	c-1.469,2.592-2.786,5.273-3.962,8.024c-2.848-5.418-6.42-10.446-10.635-14.942C231.095,283.657,236.009,286.019,240.404,289.026z
	 M177.072,354.224v-15.788H334.93v15.788H177.072z M306.056,491.602H205.947l-11.413-116.979h122.934L306.056,491.602z"/>
<g>
</g>
<g>
</g>
<g>
</g>
<g>
</g>
<g>
</g>
<g>
</g>
<g>
</g>
<g>
</g>
<g>
</g>
<g>
</g>
<g>
</g>
<g>
</g>
<g>
</g>
<g>
</g>
<g>
</g>
</svg>
