<?xml version="1.0" encoding="iso-8859-1"?>
<!-- Generator: Adobe Illustrator 18.0.0, SVG Export Plug-In . SVG Version: 6.00 Build 0)  -->
<!DOCTYPE svg PUBLIC "-//W3C//DTD SVG 1.1//EN" "http://www.w3.org/Graphics/SVG/1.1/DTD/svg11.dtd">
<svg version="1.1" id="Capa_1" xmlns="http://www.w3.org/2000/svg" xmlns:xlink="http://www.w3.org/1999/xlink" x="0px" y="0px"
	 viewBox="0 0 317.109 317.109" style="enable-background:new 0 0 317.109 317.109;" xml:space="preserve">
<g>
	<circle cx="158.555" cy="28.481" r="28.481"/>
	<path d="M226.488,185.919l-7.335-106.304c-0.485-7.043-6.473-12.374-13.451-12.175h-94.293c-7-0.202-12.967,5.131-13.453,12.175
		l-7.335,106.304c-0.497,7.216,4.949,13.471,12.166,13.969c7.298,0.487,13.476-5.011,13.969-12.166l4.975-72.095l0.262,185.32
		c0,8.464,6.504,15.746,14.958,16.144c9.026,0.425,16.478-6.767,16.478-15.7v-99.025c0-2.894,2.346-5.239,5.239-5.239l0,0
		c2.894,0,5.239,2.346,5.239,5.239v98.581c0,8.464,6.504,15.746,14.958,16.144c9.026,0.425,16.478-6.767,16.478-15.7l0.262-182.447
		l4.746,68.778c0.493,7.143,6.66,12.656,13.969,12.166C221.539,199.39,226.986,193.136,226.488,185.919z M169.078,129.748
		l-7.363,11.584c-1.471,2.314-4.849,2.314-6.32,0l-7.363-11.584c-0.537-0.844-0.713-1.868-0.49-2.843l6.621-35.107l-4.348-4.347
		c-1.448-1.448-1.448-3.796,0-5.244l6.118-6.118c1.448-1.448,3.796-1.448,5.244,0l6.117,6.118c1.448,1.448,1.448,3.796,0,5.244
		l-4.347,4.347l6.621,35.107C169.791,127.88,169.614,128.904,169.078,129.748z"/>
</g>
<g>
</g>
<g>
</g>
<g>
</g>
<g>
</g>
<g>
</g>
<g>
</g>
<g>
</g>
<g>
</g>
<g>
</g>
<g>
</g>
<g>
</g>
<g>
</g>
<g>
</g>
<g>
</g>
<g>
</g>
</svg>
