<?xml version="1.0" encoding="iso-8859-1"?>
<!-- Generator: Adobe Illustrator 16.0.0, SVG Export Plug-In . SVG Version: 6.00 Build 0)  -->
<!DOCTYPE svg PUBLIC "-//W3C//DTD SVG 1.1//EN" "http://www.w3.org/Graphics/SVG/1.1/DTD/svg11.dtd">
<svg version="1.1" id="Capa_1" xmlns="http://www.w3.org/2000/svg" xmlns:xlink="http://www.w3.org/1999/xlink" x="0px" y="0px"
	 width="227.053px" height="227.053px" viewBox="0 0 227.053 227.053" style="enable-background:new 0 0 227.053 227.053;"
	 xml:space="preserve">
<g>
	<g>
		<path d="M83.355,78.066c-7.931,0-14.367,6.427-14.367,14.361c0,7.931,6.436,17.12,14.367,17.12c7.919,0,14.352-9.188,14.352-17.12
			C97.707,84.493,91.274,78.066,83.355,78.066z"/>
		<path d="M120.868,92.756V54.988c0.006-0.548-0.901-0.996-2.01-0.996c-1.114,0-2.021,0.448-2.021,0.996v38.447
			c-1.486,0.886-2.606,2.354-2.798,4.205l-2.152,20.929l-1.964-1.806l0,0l-0.013-0.012c-0.286-0.262-0.636-0.387-0.959-0.582
			c-0.319-0.198-0.582-0.447-0.95-0.579h-0.006v-0.006c-0.627-0.225-12.05-4.302-22.521-4.813l-1.352,2.707h-0.033l3.824,29.776
			l-4.545,7.928l-4.545-7.928l3.821-29.776h-0.037l-1.346-2.707c-10.531,0.518-22.03,4.637-22.542,4.826
			c-0.192,0.067-0.316,0.213-0.499,0.298c-0.369,0.177-0.691,0.369-1.017,0.618c-0.28,0.22-0.524,0.454-0.752,0.725
			c-0.244,0.268-0.451,0.548-0.636,0.871c-0.195,0.338-0.338,0.673-0.463,1.044c-0.067,0.195-0.192,0.354-0.25,0.555l-9.079,40.876
			c-0.685,3.063,1.248,6.102,4.311,6.771c0.411,0.097,0.828,0.14,1.233,0.14c2.6,0,4.951-1.803,5.544-4.451l8.378-37.716
			c0.588-0.177,1.254-0.372,1.97-0.579v38.758l-4.519,56.191c-0.307,3.75,2.488,7.032,6.242,7.331
			c0.18,0.019,0.365,0.024,0.548,0.024c3.517,0,6.503-2.704,6.783-6.266l4.092-50.79c0.84,0.378,1.769,0.585,2.749,0.585
			c0.978,0,1.906-0.207,2.749-0.585l4.083,50.79c0.289,3.562,3.267,6.266,6.786,6.266c0.18,0,0.366-0.006,0.548-0.024
			c3.754-0.299,6.546-3.587,6.241-7.331l-4.521-56.191v-38.758c1.653,0.476,2.993,0.896,3.848,1.176l9.445,8.689
			c1.068,0.986,2.444,1.504,3.845,1.504c0.67,0,1.352-0.122,2.01-0.365c2.009-0.768,3.422-2.594,3.635-4.738l3.307-32.202
			C125.635,95.892,123.656,93.362,120.868,92.756z"/>
		<path d="M75.646,57.266c8.631,0,15.872,6.646,17.979,12.489h0.061c0-30.467,11.375-55.144,22.731-64.341
			c-7.853,0.341-15.324,2.125-22.144,5.106c-21.924,9.584-37.244,31.444-37.25,56.897h0.643
			C59.778,61.573,67.018,57.266,75.646,57.266z"/>
		<path d="M143.927,10.519c-6.832-2.987-14.292-4.777-22.146-5.106c11.35,9.188,22.73,33.868,22.73,64.335h0.055
			c2.113-5.842,9.348-12.482,17.976-12.482c8.635,0,15.868,4.308,17.987,10.15h0.64C181.174,41.963,165.848,20.104,143.927,10.519z"
			/>
		<path d="M119.79,5.361c-0.231-0.006-0.463-0.018-0.688-0.012c-0.231,0-0.463,0.006-0.688,0.006
			c-11.819,8.543-23.462,34.334-23.556,64.037c2.42-8.193,12.34-16.678,24.244-16.678c11.898,0,21.824,8.485,24.235,16.685
			C143.245,39.689,131.609,13.898,119.79,5.361z"/>
		<path d="M119.101,4.415c0.53,0,0.95,0.131,0.95-1.09c0-1.224-0.42-3.325-0.956-3.325c-0.518,0-0.95,2.101-0.95,3.325
			C118.145,4.54,118.578,4.415,119.101,4.415z"/>
	</g>
</g>
<g>
</g>
<g>
</g>
<g>
</g>
<g>
</g>
<g>
</g>
<g>
</g>
<g>
</g>
<g>
</g>
<g>
</g>
<g>
</g>
<g>
</g>
<g>
</g>
<g>
</g>
<g>
</g>
<g>
</g>
</svg>
