<?xml version="1.0" encoding="iso-8859-1"?>
<!-- Generator: Adobe Illustrator 16.0.0, SVG Export Plug-In . SVG Version: 6.00 Build 0)  -->
<!DOCTYPE svg PUBLIC "-//W3C//DTD SVG 1.1//EN" "http://www.w3.org/Graphics/SVG/1.1/DTD/svg11.dtd">
<svg version="1.1" id="Capa_1" xmlns="http://www.w3.org/2000/svg" xmlns:xlink="http://www.w3.org/1999/xlink" x="0px" y="0px"
	 width="24.666px" height="24.666px" viewBox="0 0 24.666 24.666" style="enable-background:new 0 0 24.666 24.666;"
	 xml:space="preserve">
<g>
	<g>
		<polygon points="11.846,0 17.655,5.1 14.095,4.497 		"/>
		<circle cx="17.653" cy="5.1" r="1.14"/>
		<polygon points="16.155,8.62 11.846,0 7.536,8.62 		"/>
		<path d="M16.406,15.541c0.754,0.27,1.095,1.777,0.327,2.746c0.176,1.203-0.94,0.906-1.311,1.498
			c0.391,0.716,0.292,1.01-0.309,1.168c0.339,0.744,0.34,1.24-0.985,1.912c-0.153,0.58-0.987,0.339-1.268,0.646
			c0.063,0.709-1.066,0.685-0.055,1.079c-0.432,0.203-1.504,0.01-1.938-0.713c-1.028-0.15-1.272-0.671-1.143-1.305
			c-1.01,0.33-1.448-0.287-0.786-1.264c-0.543-0.082-1.288-0.771-0.979-1.67c-0.382,0.326-1.315-0.219-0.514-0.947
			c-1.036-0.26-0.729-1.006-0.118-1.801c-0.771-0.56-0.302-1.207-0.027-1.349c-0.275,0.138,0.817,0.71,0.797,1.864
			c0.247,0.328,0.823,0.423,0.834,1.002c0.225,0.246,0.718-0.021,0.706,0.709c0.335,0.309,0.932,0.043,1.01,0.793
			c0.436,0.277,0.768,0.096,1.205,0.445c0.336-0.32,0.77-0.174,1.201-0.457c0.243-0.838,0.665-0.483,0.994-0.791
			c0.11-0.908,0.799-0.797,1.146-1.219c0.058-0.851,0.559-0.716,0.771-1.039C15.793,16.05,16.63,15.621,16.406,15.541z"/>
		<path d="M17.817,11.805c0,0.516-0.446,0.938-0.994,0.938c0,0-2.471-0.71-4.978,0c-2.319-0.71-4.978,0-4.978,0
			c-0.547,0-0.995-0.422-0.995-0.938V9.931c0-0.515,0.448-0.938,0.995-0.938h9.954c0.549,0,0.996,0.421,0.996,0.938V11.805
			L17.817,11.805z"/>
	</g>
</g>
<g>
</g>
<g>
</g>
<g>
</g>
<g>
</g>
<g>
</g>
<g>
</g>
<g>
</g>
<g>
</g>
<g>
</g>
<g>
</g>
<g>
</g>
<g>
</g>
<g>
</g>
<g>
</g>
<g>
</g>
</svg>
