<?xml version="1.0" encoding="iso-8859-1"?>
<!-- Generator: Adobe Illustrator 19.0.0, SVG Export Plug-In . SVG Version: 6.00 Build 0)  -->
<svg version="1.1" id="Layer_1" xmlns="http://www.w3.org/2000/svg" xmlns:xlink="http://www.w3.org/1999/xlink" x="0px" y="0px"
	 viewBox="0 0 512 512" style="enable-background:new 0 0 512 512;" xml:space="preserve">
<path style="fill:#C6C5CA;" d="M449.305,149.884c-50.882-21.526-114.32,13.476-141.692,78.177
	c-27.372,64.703-8.313,134.603,42.568,156.129c50.882,21.526,114.32-13.476,141.692-78.177
	C519.246,241.312,500.187,171.41,449.305,149.884z M465.241,294.747c-16.657,39.375-50.966,66.875-83.433,66.875
	c-7.141,0-13.991-1.366-20.361-4.062c-16.266-6.882-28.341-22.099-33.997-42.849c-6.342-23.262-3.93-50.034,6.795-75.383
	c16.658-39.375,50.966-66.875,83.433-66.875c7.141,0,13.991,1.366,20.361,4.062c16.266,6.881,28.341,22.099,33.998,42.849
	C478.379,242.626,475.966,269.398,465.241,294.747z"/>
<path style="fill:#ACABB1;" d="M422.442,381.183l-2.607-31.42c-12.168,7.578-25.238,11.86-38.027,11.86
	c-7.141,0-13.991-1.366-20.361-4.062c-16.266-6.881-28.341-22.099-33.997-42.849c-6.342-23.263-3.93-50.034,6.795-75.384
	c14.538-34.363,42.519-59.677,70.987-65.565l-1.739-20.96c-0.224-2.698-0.686-5.328-1.341-7.881
	c-38.079,6.725-75.257,37.562-94.539,83.14c-27.372,64.702-8.313,134.603,42.568,156.129
	C373.199,393.929,398.786,392.098,422.442,381.183z"/>
<polygon style="fill:#C6C5CA;" points="53.884,207.325 196.747,409.74 219.88,324.918 80.117,180.198 "/>
<polygon style="fill:#ACABB1;" points="136.632,324.567 196.747,409.74 219.88,324.918 143.192,245.51 "/>
<g>
	<path style="fill:#E0E0E2;" d="M85.01,138.042c-5.509-5.509-14.442-5.51-19.953,0L11.74,191.359
		c-5.509,5.509-5.509,14.442,0,19.953c9.785,9.785,22.796,15.175,36.635,15.175s26.85-5.39,36.635-15.175
		C105.211,191.111,105.211,158.243,85.01,138.042z"/>
	<path style="fill:#E0E0E2;" d="M393.967,406.04l-20.804-250.721c-0.764-9.212-8.465-16.301-17.709-16.301H198.923
		c-9.244,0-16.945,7.088-17.709,16.301L160.41,406.04c-0.411,4.951,1.27,9.848,4.635,13.504c3.365,3.655,8.106,5.736,13.074,5.736
		h198.14c4.969,0,9.71-2.08,13.075-5.736C392.697,415.888,394.378,410.992,393.967,406.04z"/>
</g>
<path style="fill:#C7C5CA;" d="M200.481,406.04l20.804-250.721c0.765-9.212,8.465-16.301,17.709-16.301h-40.071
	c-9.244,0-16.945,7.088-17.709,16.301L160.41,406.04c-0.411,4.951,1.27,9.848,4.635,13.504c3.365,3.655,8.106,5.736,13.074,5.736
	h40.071c-4.969,0-9.71-2.08-13.075-5.736C201.751,415.888,200.07,410.992,200.481,406.04z"/>
<path style="fill:#FFEB99;" d="M284.472,164.914h-14.567c-10.043,0-18.26-8.217-18.26-18.26V72.326
	c0-10.043,8.217-18.26,18.26-18.26h14.567c10.043,0,18.26,8.217,18.26,18.26v74.328
	C302.731,156.697,294.514,164.914,284.472,164.914z"/>
<path style="fill:#FFDA44;" d="M283.666,146.654V72.326c0-6.887,3.865-12.914,9.533-16.022c-2.597-1.424-5.571-2.238-8.727-2.238
	h-14.567c-10.043,0-18.26,8.217-18.26,18.26v74.328c0,10.043,8.217,18.26,18.26,18.26h14.567c3.156,0,6.13-0.814,8.727-2.238
	C287.531,159.568,283.666,153.541,283.666,146.654z"/>
<path style="fill:#FF728B;" d="M268.34,303.616c-22.523,39.012-53.895-15.326-8.849-15.326c-45.047,0-13.675-54.337,8.849-15.326
	c-22.523-39.012,40.221-39.012,17.697,0c22.523-39.012,53.895,15.326,8.849,15.326c45.047,0,13.675,54.337-8.849,15.326
	C308.56,342.629,245.816,342.629,268.34,303.616z"/>
<g>
	<circle style="fill:#FFEB99;" cx="277.19" cy="288.288" r="11.199"/>
	<path style="fill:#FFEB99;" d="M386.261,457.934h-215.98c-10.043,0-18.26-8.217-18.26-18.26V418.36
		c0-10.043,8.217-18.26,18.26-18.26h215.98c10.043,0,18.26,8.217,18.26,18.26v21.314
		C404.52,449.717,396.303,457.934,386.261,457.934z"/>
</g>
<g>
	<path style="fill:#FFDA44;" d="M199.671,439.674V418.36c0-10.043,8.217-18.26,18.26-18.26h-47.65
		c-10.043,0-18.26,8.217-18.26,18.26v21.314c0,10.043,8.217,18.26,18.26,18.26h47.65
		C207.888,457.934,199.671,449.717,199.671,439.674z"/>
	<path style="fill:#FFDA44;" d="M372.486,436.626h-90.283c-4.202,0-7.608-3.406-7.608-7.608s3.406-7.608,7.608-7.608h90.283
		c4.202,0,7.608,3.406,7.608,7.608S376.688,436.626,372.486,436.626z"/>
</g>
<path d="M376.94,281.621c0.33,3.973,3.656,6.979,7.574,6.979c0.211,0,0.423-0.009,0.637-0.026c4.188-0.347,7.301-4.023,6.953-8.211
	l-2.354-28.377c-0.347-4.188-4.021-7.294-8.211-6.953c-4.188,0.347-7.301,4.023-6.953,8.211L376.94,281.621z"/>
<path d="M510.774,227.227c-3.509-26.622-14.195-49.392-30.901-65.848c-2.995-2.949-7.811-2.912-10.759,0.081
	c-2.949,2.994-2.912,7.811,0.081,10.759c29.517,29.073,35.961,82.872,15.673,130.829c-17.012,40.212-50.067,70.161-85.347,77.902
	l-1.143-13.78c30.303-7.388,58.913-34.098,73.872-69.459c11.386-26.913,13.917-55.447,7.128-80.349
	c-6.284-23.049-19.912-40.044-38.375-47.854c-7.314-3.094-15.162-4.663-23.326-4.663c-11.621,0-23.689,3.151-35.328,9.169
	l-1.213-14.62c22.26-10.013,45.288-10.93,65.205-2.504c3.871,1.638,8.334-0.172,9.972-4.042c1.637-3.87-0.172-8.334-4.042-9.972
	c-23.077-9.763-49.37-9.187-74.725,1.487c-4.397-7.737-12.735-12.954-22.09-12.954h-45.115V72.326
	c0-14.264-11.604-25.868-25.868-25.868h-14.567c-14.264,0-25.868,11.604-25.868,25.868v59.085h-45.115
	c-13.098,0-24.208,10.225-25.292,23.28l-8.511,102.574l-60.694-62.846c2.193-6.257,3.341-12.908,3.341-19.742
	c0-15.887-6.172-30.808-17.379-42.014c-4.101-4.101-9.555-6.361-15.356-6.361s-11.254,2.259-15.355,6.361L6.358,185.979
	C2.259,190.08,0,195.534,0,201.335c0,5.8,2.259,11.254,6.361,15.355c11.223,11.223,26.143,17.403,42.014,17.403
	c4.755,0,9.421-0.566,13.931-1.644l93.841,132.96l-2.771,33.395c-5.484,4.746-8.963,11.75-8.963,19.556v21.314
	c0,14.264,11.604,25.868,25.868,25.868h215.98c14.264,0,25.868-11.604,25.868-25.868V418.36c0-16.791-11.34-22.124-11.34-22.124
	c19.18-3.805,38.011-13.201,54.737-27.381c18.385-15.587,33.377-36.292,43.355-59.877
	C510.187,282.251,514.3,253.982,510.774,227.227z M259.253,72.326c0-5.873,4.778-10.651,10.651-10.651h14.567
	c5.874,0,10.651,4.778,10.651,10.651v74.328c0,5.873-4.778,10.651-10.651,10.651h-14.567c-5.874,0-10.651-4.778-10.651-10.651
	V72.326z M48.376,218.879c-11.807,0-22.907-4.598-31.255-12.947c-1.227-1.227-1.904-2.86-1.904-4.595
	c0-1.737,0.677-3.369,1.904-4.596l53.318-53.318c1.227-1.227,2.86-1.904,4.595-1.904c1.737,0,3.369,0.677,4.596,1.904
	c8.332,8.333,12.922,19.433,12.922,31.255c0,11.822-4.589,22.922-12.922,31.255C71.282,214.28,60.182,218.879,48.376,218.879z
	 M76.939,226.795c4.876-2.681,9.407-6.06,13.451-10.105c2.485-2.485,4.707-5.161,6.685-7.981l66.372,68.726l-5.34,64.362
	L76.939,226.795z M396.912,439.674c0,5.874-4.778,10.651-10.651,10.651H170.279c-5.873,0-10.651-4.778-10.651-10.651V418.36
	c0-5.874,4.778-10.651,10.651-10.651h215.981c5.874,0,10.651,4.778,10.651,10.651V439.674z M393.253,305.429
	c-0.347-4.188-4.017-7.297-8.211-6.953c-4.188,0.347-7.301,4.023-6.953,8.211l7.12,85.805h-214.93c-0.373,0-0.745,0.012-1.114,0.028
	l19.629-236.573c0.434-5.227,4.882-9.322,10.127-9.322h45.115v0.026c0,14.264,11.604,25.868,25.868,25.868h14.567
	c14.264,0,25.868-11.604,25.868-25.868v-0.026h45.115c5.245,0,9.693,4.094,10.127,9.322l5.883,70.9
	c0.33,3.973,3.656,6.979,7.574,6.979c0.211,0,0.423-0.009,0.637-0.026c4.188-0.347,7.301-4.023,6.953-8.211l-2.892-34.852
	c17.459-10.844,36.142-13.643,51.338-7.215c14.072,5.954,24.593,19.393,29.623,37.843c5.896,21.624,3.601,46.633-6.462,70.418
	c-12.74,30.116-36.258,52.97-61.136,60L393.253,305.429z"/>
<g>
</g>
<g>
</g>
<g>
</g>
<g>
</g>
<g>
</g>
<g>
</g>
<g>
</g>
<g>
</g>
<g>
</g>
<g>
</g>
<g>
</g>
<g>
</g>
<g>
</g>
<g>
</g>
<g>
</g>
</svg>
